<svg xmlns="http://www.w3.org/2000/svg" viewBox="0 0 800 600" width="100%" height="100%">
  <rect width="800" height="600" rx="12" fill="#0A0A0C" stroke="rgba(244,244,240,0.08)" stroke-width="2"/>
  <rect x="50" y="50" width="700" height="500" rx="8" fill="#111114" stroke="rgba(212,255,61,0.1)" stroke-width="1"/>
  <rect x="50" y="50" width="700" height="60" rx="8" fill="#18181C"/>
  <circle cx="90" cy="80" r="6" fill="#D4FF3D"/>
  <text x="110" y="85" font-family="'Geist Mono', monospace" font-size="16" fill="#F4F4F0" letter-spacing="1">ATRIUM · SAAS COMMERCE</text>
  <rect x="80" y="140" width="180" height="100" rx="6" fill="#18181C" stroke="rgba(212,255,61,0.05)" stroke-width="1"/>
  <text x="100" y="180" font-family="sans-serif" font-size="14" fill="#80807A">TOTAL REVENUE</text>
  <text x="100" y="215" font-family="sans-serif" font-size="24" fill="#D4FF3D" font-weight="bold">,000</text>
  <rect x="280" y="140" width="180" height="100" rx="6" fill="#18181C"/>
  <text x="300" y="180" font-family="sans-serif" font-size="14" fill="#80807A">ACTIVE CUSTOMERS</text>
  <text x="300" y="215" font-family="sans-serif" font-size="24" fill="#F4F4F0" font-weight="bold">12,492</text>
  <rect x="480" y="140" width="240" height="100" rx="6" fill="#18181C"/>
  <text x="500" y="180" font-family="sans-serif" font-size="14" fill="#80807A">SERVER LATENCY</text>
  <text x="500" y="215" font-family="sans-serif" font-size="24" fill="#F4F4F0" font-weight="bold">32ms</text>
  <path d="M 80 500 Q 150 400 250 450 T 400 350 T 550 420 T 720 300" fill="none" stroke="#D4FF3D" stroke-width="4">
    <animate attributeName="stroke-dasharray" from="0,1000" to="1000,0" dur="4s" repeatCount="indefinite" />
  </path>
  <circle cx="720" cy="300" r="6" fill="#D4FF3D">
    <animate attributeName="r" values="6;10;6" dur="2s" repeatCount="indefinite"/>
  </circle>
</svg>
